Coordinates
version=1
nRows=6
nColumns=36
inDegrees=yes

Units are S.I. units (second, meters, Newtons, ...)
If the header above contains a line with 'inDegrees', this indicates whether rotational values are in degrees (yes) or radians (no).

endheader
time	pelvis_tilt	pelvis_list	pelvis_rotation	pelvis_tx	pelvis_ty	pelvis_tz	hip_flexion_r	hip_adduction_r	hip_rotation_r	knee_angle_r	knee_angle_r_beta	ankle_angle_r	subtalar_angle_r	mtp_angle_r	hip_flexion_l	hip_adduction_l	hip_rotation_l	knee_angle_l	knee_angle_l_beta	ankle_angle_l	subtalar_angle_l	mtp_angle_l	lumbar_extension	lumbar_bending	lumbar_rotation	arm_flex_r	arm_add_r	arm_rot_r	elbow_flex_r	pro_sup_r	arm_flex_l	arm_add_l	arm_rot_l	elbow_flex_l	pro_sup_l
      4.21666670	     -7.43029333	     14.64828839	      8.49475564	      0.81994246	      0.76213480	     -0.01719454	     76.91353047	    -18.06754008	     15.89097470	     41.34582277	      0.72162074	    -12.66493408	     -3.44021566	     -7.49999987	     59.78529758	     22.42436787	     -7.61405941	     79.03595299	      1.37943761	     27.73313682	    -18.85771812	     -7.49999987	    -38.31917742	    -11.67413680	    -13.58945312	     57.55966660	     16.19001793	     24.92330322	    117.18366727	    107.81747065	     81.34701260	      6.34745078	     57.97576231	    118.94568695	     94.38390255
      4.23333330	     -6.63286429	     14.60494186	      7.85850181	      0.81931868	      0.76937302	     -0.01645439	     75.04721510	    -17.89439675	     15.48086822	     40.11808983	      0.70019276	    -12.93551996	     -2.95341110	     -7.49999987	     57.99197282	     22.49363942	     -6.95333358	     77.65270615	      1.35529540	     27.53248984	    -18.88912794	     -7.49999987	    -38.04611684	    -11.96418086	    -13.48433305	     57.90323588	     16.56710258	     23.51511028	    115.95190526	    106.23328262	     80.88734126	      5.84076092	     56.93485036	    118.16853047	     92.17532983
      4.25000000	     -5.65784996	     14.49623106	      7.47764423	      0.81290292	      0.77919315	     -0.01858100	     73.18063249	    -17.88260512	     15.02990882	     39.14995303	      0.68329558	    -13.34417849	     -2.60815965	     -7.49999987	     56.21255139	     22.54623543	     -6.32194565	     76.28637986	      1.33144850	     27.06066638	    -19.15948539	     -7.49999987	    -38.32082119	    -11.93598800	    -13.91224962	     58.19169099	     17.17267053	     21.73718679	    113.75229634	    106.80043930	     81.61193183	      5.44435508	     55.98935109	    117.37263791	     92.42318359
      4.26666670	     -4.74314337	     14.47778852	      7.22023456	      0.81300721	      0.78937392	     -0.01795573	     71.51622656	    -18.01565119	     14.53103333	     38.16203961	      0.66605324	    -13.69153054	     -2.00889578	     -7.49999987	     54.58144142	     22.67637111	     -5.84202667	     74.86496725	      1.30664017	     26.47246282	    -19.37931068	     -7.49999987	    -38.58547121	    -11.81337891	    -13.62630548	     57.50932150	     17.06487598	     24.18167258	    115.31127026	    107.22793986	     81.45052149	      6.13007774	     56.73011981	    117.62336705	     92.76403449
      4.28333330	     -3.90954321	     14.48918073	      6.88028291	      0.82080214	      0.80439635	     -0.01529456	     69.63442835	    -18.12564910	     13.93983806	     36.81650337	      0.64256920	    -13.62242525	     -0.91405112	     -7.49999987	     52.63210373	     22.89240175	     -5.14483898	     73.10886596	      1.27599042	     25.73001238	    -19.81319748	     -7.49999987	    -38.55727477	    -12.23647625	    -13.56600220	     57.11929298	     17.75990614	     22.95765426	    113.93056080	    104.72028622	     80.70987907	      5.40376199	     57.37477919	    118.71468422	     91.58876249
      4.30000000	     -3.33336804	     14.34140971	      6.52364532	      0.81365526	      0.81613380	     -0.01791774	     67.92496286	    -18.05755119	     13.28574830	     35.49476883	      0.61950058	    -13.80802326	     -0.18229950	     -7.49999987	     50.90924828	     22.92078548	     -4.40229863	     71.31902404	      1.24475179	     25.15512445	    -19.85896250	     -7.49999987	    -38.42548928	    -12.28402380	    -13.46966364	     57.30862099	     17.71392344	     21.56770705	    111.76876329	    105.35804446	     80.86586331	      5.15859027	     57.98835564	    118.64296493	     91.93011290
